<!-- SPDX-FileCopyrightText: 2026 Kaushik Kumar <kaushikrjpm10@gmail.com> -->
<!-- SPDX-License-Identifier: AGPL-3.0-only -->
<svg version="1.1" xmlns="http://www.w3.org/2000/svg" viewBox="0 0 537 420">
<path fill="#519DAB" fill-rule="evenodd" stroke="none" d="
M188.935654,391.968811
	C188.968796,391.532623 189.001938,391.096466 189.225967,390.151917
	C189.621292,389.400879 189.800461,389.140808 189.954346,388.863281
	C189.954346,388.863281 189.971832,388.999512 190.101959,388.776001
	C190.478729,388.001007 190.725372,387.449554 190.972015,386.898102
	C190.972031,386.898102 191.054321,386.449982 191.269165,386.056915
	C191.680908,385.426422 191.838562,385.165314 191.956985,384.880493
	C198.553314,373.856750 205.016174,362.750488 211.773804,351.826508
	C225.729843,329.266113 239.881973,306.827057 253.863174,284.282104
	C257.216858,278.874268 256.584717,276.948883 250.736130,270.194305
	C247.840973,266.850616 244.998810,263.436523 242.424896,259.844818
	C238.221161,253.978882 231.807465,252.554016 225.453094,251.031143
	C220.559021,249.858246 215.542892,248.028107 210.667068,248.264511
	C205.498581,248.515106 199.963593,249.991684 195.403091,252.446121
	C177.456879,262.104645 159.892197,272.469391 142.042557,282.312042
	C137.708008,284.702209 132.968353,286.735657 128.163864,287.807251
	C120.898079,289.427887 117.148384,283.679230 114.502998,278.596985
	C107.880508,265.874084 102.212967,252.657455 95.832863,239.802414
	C94.483475,237.083572 95.260010,235.540283 97.156845,234.421661
	C106.859184,228.699890 116.790894,223.460480 128.117538,221.602249
	C126.586067,214.987244 125.417519,213.586304 118.711021,214.128571
	C111.204750,214.735504 107.086189,210.613083 103.610367,205.076721
	C101.093391,201.067627 98.751961,196.948334 96.037163,192.381821
	C97.553200,191.216599 98.892693,189.807281 100.528198,188.991302
	C111.625404,183.454697 122.721115,177.906815 133.949371,172.644363
	C140.328186,169.654709 146.136383,172.087814 148.483337,179.149628
	C150.164810,184.209091 150.835663,189.683304 151.288406,195.029144
	C151.445236,196.880920 149.835449,199.079422 148.598434,200.809052
	C146.361053,203.937393 143.797333,206.832321 141.369888,209.824707
	C141.749725,210.580765 142.129578,211.336838 142.509430,212.092896
	C146.409958,211.374557 150.604904,211.334564 154.149521,209.796173
	C161.448181,206.628525 168.320877,202.494614 175.522171,199.081833
	C180.054108,196.934097 181.231827,192.865143 181.884171,188.748016
	C183.163010,180.676971 188.287292,175.483475 194.753204,171.863480
	C208.686813,164.062668 222.982803,156.910492 237.104660,149.444061
	C247.366211,144.018631 257.692017,138.699020 267.754700,132.923645
	C270.452942,131.375046 272.895264,128.665436 274.422485,125.915375
	C281.049438,113.982315 291.235382,106.327759 303.130188,100.313751
	C316.670074,93.468018 329.983734,86.176201 343.451965,79.186600
	C348.578674,76.526016 351.158661,72.175499 353.088226,66.959534
	C354.225525,63.885334 355.868011,60.519859 358.298645,58.518536
	C361.634216,55.772087 365.775696,53.794621 369.850159,52.197731
	C379.127655,48.561596 385.079285,50.545856 390.824493,59.922749
	C395.417908,67.419792 399.031342,75.519142 403.047607,83.367577
	C412.499268,101.837708 422.091705,120.238525 431.290314,138.834000
	C434.793091,145.915054 437.622467,153.362961 440.295227,160.810013
	C442.384399,166.631027 440.236603,171.111313 434.674561,174.022736
	C422.951447,180.159134 410.729919,184.245789 397.235077,184.132889
	C394.011322,184.105896 390.592316,185.718430 387.568359,187.199890
	C373.305267,194.187469 359.261871,201.633820 344.885712,208.373871
	C340.451324,210.452866 335.255066,211.513611 330.333008,211.812973
	C321.464691,212.352371 312.540039,211.965408 302.865356,211.965408
	C303.476959,213.697327 304.182495,215.860153 304.999115,217.980209
	C309.485809,229.628235 313.462830,241.309677 309.033752,253.973282
	C305.563965,263.893951 298.444153,270.723389 289.772339,275.896637
	C286.080566,278.098999 286.428894,280.324951 288.052704,283.037323
	C297.415985,298.677399 306.963165,314.207581 316.302979,329.861572
	C325.397827,345.105011 334.094604,360.590332 343.402527,375.700684
	C348.665466,384.244476 352.607880,393.151642 354.454926,402.988037
	C354.663727,404.099792 354.590912,405.264435 354.703613,407.487457
	C345.195862,400.929779 338.669006,393.390564 333.257477,384.691071
	C319.588898,362.717529 305.858154,340.781525 291.973846,318.944000
	C287.890747,312.522003 283.210541,306.479614 277.978363,299.098541
	C277.978363,308.999298 277.978363,317.604492 277.693512,326.935852
	C276.941620,330.061005 276.046997,332.465607 276.078339,334.858063
	C276.254272,348.267639 276.653656,361.674316 276.800415,375.444397
	C276.756714,383.208557 276.889343,390.610260 277.021973,398.011993
	C276.980103,398.760681 276.938263,399.509369 276.777649,400.750092
	C276.590912,401.527618 276.647919,401.785126 276.829895,402.014648
	C274.513519,404.320526 272.197144,406.626404 269.880768,408.932281
	C268.281342,406.044220 265.652191,403.276520 265.297546,400.242920
	C264.566742,393.991638 265.170685,387.595062 264.994293,381.264709
	C264.866241,376.668488 264.100250,372.083832 264.078644,367.491882
	C263.977264,345.954437 264.041077,324.416199 264.022400,302.878265
	C264.021210,301.480621 263.822845,300.083160 262.509491,298.172577
	C261.584717,299.297272 260.527527,300.338104 259.754700,301.558990
	C244.493286,325.669617 229.336502,349.846832 213.989731,373.902893
	C208.825821,381.997314 203.196198,389.794647 197.145508,397.919098
	C195.680527,398.757690 194.849442,399.404938 194.018372,400.052185
	C193.550018,400.633179 193.081665,401.214172 192.149521,402.054443
	C191.460861,402.560425 191.235992,402.807129 191.011139,403.053802
	C191.011124,403.053802 190.996033,403.001984 190.655334,402.981812
	C189.206070,401.946899 188.097504,400.932129 186.988937,399.917328
	C186.988937,399.917328 187.098694,399.440247 187.306824,398.917847
	C187.661819,397.562317 187.808670,396.729156 187.955521,395.896027
	C187.999634,395.477570 188.043762,395.059113 188.352570,394.230225
	C188.723389,393.202789 188.829529,392.585785 188.935654,391.968811
z
M388.577698,171.125656
	C395.594147,166.476608 396.796936,162.943680 393.073578,155.477661
	C383.518677,136.318390 373.830261,117.224586 364.041718,98.183533
	C360.693878,91.671150 355.501373,89.319237 349.663818,92.199745
	C331.175201,101.322838 312.863495,110.805428 294.518158,120.216812
	C291.811920,121.605125 291.565033,123.730942 293.040680,126.430588
	C295.793884,131.467392 298.304138,136.637161 300.907867,141.755478
	C310.109650,159.844009 319.361908,177.907257 328.461273,196.047165
	C330.213684,199.540619 331.901184,200.643097 335.583313,198.301254
	C338.713715,196.310333 342.463623,195.324860 345.789551,193.604706
	C359.881500,186.316360 373.917480,178.919891 388.577698,171.125656
z
M256.025757,223.535278
	C271.500031,215.403641 286.987671,207.297318 302.441772,199.127502
	C308.380066,195.988205 310.775726,190.894424 308.253876,185.807724
	C300.993744,171.163620 293.531525,156.618225 285.945557,142.140488
	C285.444153,141.183517 282.809998,140.288818 281.887512,140.763565
	C263.556122,150.197266 245.341705,159.857956 227.079834,169.427307
	C217.384201,174.507889 207.596100,179.415314 197.980881,184.642151
	C196.723007,185.325912 195.192581,187.890961 195.586349,188.833420
	C197.717789,193.934753 200.359970,198.828461 202.928574,203.740158
	C208.673080,214.724869 214.597351,225.617676 220.184921,236.680984
	C221.837341,239.952744 223.334229,240.644958 226.651810,238.853882
	C236.147537,233.727432 245.805084,228.900696 256.025757,223.535278
z
M168.620544,217.056458
	C157.337723,222.830872 146.054886,228.605301 134.484482,234.526901
	C138.859421,243.521271 142.883072,252.020065 147.231369,260.349365
	C147.625366,261.104034 150.444702,261.419006 151.570740,260.838440
	C164.162598,254.346390 176.669769,247.687820 189.139847,240.962997
	C193.951981,238.367920 198.611694,235.490234 203.543243,232.623642
	C198.632660,223.571289 194.085968,215.189728 189.486404,206.710678
	C182.468018,210.264847 175.915466,213.583115 168.620544,217.056458
z
M413.585999,163.124542
	C416.337128,165.981537 419.690094,165.945801 422.461304,163.830017
	C425.280029,161.678040 425.881012,158.442032 424.042358,155.007568
	C422.969177,153.002853 422.321136,150.773941 421.295410,148.739914
	C407.554169,121.491005 393.749908,94.273788 380.061401,66.998451
	C378.723724,64.333061 377.611328,63.514275 374.469788,64.678604
	C366.971008,67.457832 365.510895,70.176483 369.163483,77.398743
	C377.619904,94.119736 386.199341,110.778763 394.779510,127.436874
	C400.823334,139.170746 406.950256,150.861801 413.585999,163.124542
z
M257.635956,239.054718
	C254.867889,241.589615 250.893784,243.962891 252.221832,248.266937
	C254.426392,255.411713 259.398956,260.912445 266.187134,263.852417
	C274.144562,267.298828 286.261200,264.016174 291.526733,257.935150
	C297.739014,250.760757 299.760803,237.475800 295.846161,229.552551
	C293.341400,224.482849 289.432587,222.585846 284.103058,224.439438
	C274.675018,227.718475 265.805115,232.095642 257.635956,239.054718
z
M124.983543,268.698273
	C126.922874,271.593018 129.538025,271.742676 132.094894,269.931274
	C134.794510,268.018707 133.927017,265.586548 132.583862,263.057007
	C129.307388,256.886566 126.326927,250.558823 123.042503,244.392838
	C120.329842,239.300247 115.041840,237.278458 108.664879,238.910751
	C114.019402,248.692429 119.312347,258.361603 124.983543,268.698273
z"/>
<path fill="#5FA1AC" opacity="1.000000" stroke="none"
	d="
M276.976746,375.081970
	C276.653656,361.674316 276.254272,348.267639 276.078339,334.858063
	C276.046997,332.465607 276.941620,330.061005 277.624664,327.356384
	C277.874390,347.704132 277.908112,368.357452 277.724792,389.094849
	C277.330719,384.479950 277.153748,379.780945 276.976746,375.081970
z"/>
<path fill="#4D8D96" opacity="1.000000" stroke="none"
	d="
M276.800446,375.444397
	C277.153748,379.780945 277.330719,384.479950 277.655884,389.554718
	C277.779602,392.476135 277.755096,395.021790 277.376282,397.789703
	C276.889343,390.610260 276.756714,383.208557 276.800446,375.444397
z"/>
<path fill="#57929D" opacity="1.000000" stroke="none"
	d="
M186.651581,400.079315
	C188.097504,400.932129 189.206070,401.946899 190.679535,402.993774
	C190.763336,403.425110 190.566772,403.957642 190.185745,404.199432
	C188.877747,405.029449 187.505127,405.757599 186.157135,406.524536
	C186.103058,405.077362 186.009918,403.630096 186.012726,402.183014
	C186.013992,401.535583 186.207809,400.888519 186.651581,400.079315
z"/>
<path fill="#57929D" opacity="1.000000" stroke="none"
	d="
M194.350479,400.011475
	C194.849442,399.404938 195.680527,398.757690 196.845673,398.061707
	C196.347351,398.665588 195.514969,399.318176 194.350479,400.011475
z"/>
<path fill="#57929D" opacity="1.000000" stroke="none"
	d="
M188.656540,392.105530
	C188.829529,392.585785 188.723389,393.202789 188.422546,393.922485
	C188.277695,393.430908 188.327560,392.836578 188.656540,392.105530
z"/>
<path fill="#57929D" opacity="1.000000" stroke="none"
	d="
M187.645996,396.063293
	C187.808670,396.729156 187.661819,397.562317 187.378250,398.683716
	C187.273193,398.058197 187.304840,397.144409 187.645996,396.063293
z"/>
<path fill="#57929D" opacity="1.000000" stroke="none"
	d="
M190.678696,387.035461
	C190.725372,387.449554 190.478729,388.001007 190.033844,388.784668
	C190.018860,388.402222 190.202118,387.787506 190.678696,387.035461
z"/>
<path fill="#57929D" opacity="1.000000" stroke="none"
	d="
M191.711517,384.980804
	C191.838562,385.165314 191.680908,385.426422 191.334503,385.838684
	C191.278671,385.702698 191.372360,385.391907 191.711517,384.980804
z"/>
<path fill="#57929D" opacity="1.000000" stroke="none"
	d="
M189.687515,388.947540
	C189.800461,389.140808 189.621292,389.400879 189.265442,389.825806
	C189.216232,389.682678 189.318466,389.357239 189.687515,388.947540
z"/>
<path fill="#4D8D96" opacity="1.000000" stroke="none"
	d="
M276.881592,401.759094
	C276.647919,401.785126 276.590912,401.527618 276.725891,401.121704
	C276.839661,401.168671 276.886475,401.336090 276.881592,401.759094
z"/>
<path fill="#57929D" opacity="1.000000" stroke="none"
	d="
M191.263763,402.971069
	C191.235992,402.807129 191.460861,402.560425 191.890381,402.168884
	C191.902161,402.312134 191.709274,402.600220 191.263763,402.971069
z"/>
</svg>
